<?xml version="1.0" encoding="utf-8"?>
<!-- Generator: Adobe Adobe Illustrator 24.2.0, SVG Export Plug-In . SVG Version: 6.00 Build 0)  -->
<svg version="1.1" xmlns="http://www.w3.org/2000/svg" xmlns:xlink="http://www.w3.org/1999/xlink" x="0px" y="0px" width="1728px"
	 height="1296px" viewBox="0 0 1728 1296" style="enable-background:new 0 0 1728 1296;" xml:space="preserve">
<style type="text/css">
	.st0{stroke:#000000;stroke-miterlimit:10;}
</style>
<g id="Layer_2">
	<path class="st0" d="M1359.19,940.87c5.55-27.47-19.62-50.85-43.13-66.11C1213,807.88,1093.49,762,980.34,713.67
		c-0.43-0.18-0.87-0.3-1.33-0.36c-0.31-0.04-0.63-0.12-0.96-0.24c-17.17-6.2-33.74-13.47-43.74-29.7c-1.54-2.51-2.97-5.12-4.33-7.78
		c-0.21-0.41-0.47-0.78-0.78-1.12c-1.85-2.01-3.63-3.97-5.31-5.84c-11.06-12.33-18.23,1.87-24.84-20.04
		c-25.96-58.2-51.57-115.6-77.54-173.8c-14.16-22.84-28.26-45.73-42.12-68.76c-2.38-3.95-4.74-7.92-7.09-11.89
		c-11.61-17.6-22.96-35.38-33.85-53.44c-8.96-14.86-16.98-30.25-24.37-45.94c-2.93-6.22-5.93-12.38-9-18.52
		c-0.09-0.17-0.18-0.34-0.29-0.51c-3.61-5.52-7.13-11.09-10.57-16.72c-2.28-1.05-3.98-1.82-6.26-2.87
		c-11.47,1.84-21.82,5.42-24.79,10.23c-6.66,10.8-6.87,48.3-8.01,60.93c-8.04,89.12-20.3,154.67-13.45,217.93
		c0.42,3.9-3.56,6.77-7.14,5.17L288.08,395.59c-4.16-1.86-8.48,2.26-6.82,6.51c17.13,43.93,60.09,86.64,97.07,134.65
		c12.77,16.57,48.48,41.08,64.56,54.46c19.23,16.01,42.37,26.46,65.19,36.72c245.55,110.39,484.07,222.44,729.62,332.82
		c20.39,9.17,48.68,16.86,71.03,16.28C1331.07,976.46,1354.77,962.79,1359.19,940.87z"/>
	<path class="st0" d="M386.81,422.4c4.22,1.66,8.33-2.63,6.52-6.78c-4.27-9.78-8.14-19.73-11.81-29.73
		c-6.02-16.43-11.13-33.18-17.13-49.62c-6.42-17.57-13.93-34.73-20.1-52.4c-5.44-15.57-10.47-31.22-16.27-46.68
		c-0.3-0.79-0.59-1.58-0.89-2.37c-0.6-1.62-1.98-2.83-3.67-3.2c-13.18-2.91-26.39-5.69-39.64-8.23c-2.9-0.56-5.67,1.46-6.01,4.39
		c-5.98,50.4-2.36,123.83,11.08,150.82c0.19,0.39,0.38,0.54,0.57,0.51c1.07-0.16,2.16-0.25,3.12,0.25
		C323.56,395.4,354.56,409.74,386.81,422.4z M290.92,376.39c0.69-1.86,1.4-3.77,2.23-2.38
		C293.98,375.38,292.37,375.97,290.92,376.39z"/>
	<path class="st0" d="M281.16,222.87c-0.9,1.83-1.77,3.68-2.61,5.55l2.67-5.53C281.21,222.88,281.18,222.88,281.16,222.87z"/>
	<path class="st0" d="M291.63,224.9c-3.27-0.65-6.55-1.28-9.83-1.91c-2.71-0.51-5.32,1.23-5.92,3.92
		c-9.84,44.13-9.88,90.43-0.04,134.56c1.17,5.24,2.63,10.73,6.43,14.53c4.06,4.06,9.85,5.33,15.71,5.77
		c3.04,0.23,5.58-2.3,5.42-5.35l-7.68-146.8C295.6,227.31,293.92,225.36,291.63,224.9z"/>
	<path class="st0" d="M345.86,288.38c-0.05-0.25-0.12-0.49-0.2-0.72c-0.46-1.26-0.92-2.52-1.36-3.79
		c-5.44-15.57-10.47-31.22-16.27-46.68c-0.3-0.79-0.59-1.58-0.89-2.37c-0.6-1.62-1.99-2.83-3.67-3.2
		c-12.35-2.73-24.72-5.34-37.13-7.75c-2.67-0.52-5.29,1.15-5.92,3.79c-11.64,48.91-12.83,100.16-2.02,147.88
		c0.38,1.69,1.61,3.07,3.24,3.65c10.71,3.83,23.23,8.81,34.19,12.8c2.77,1.01,5.8-0.53,6.63-3.36l25.45-86.96
		c0.23-0.78,0.27-1.6,0.12-2.4C347.33,295.63,346.6,292.01,345.86,288.38z"/>
	<path class="st0" d="M934.3,683.38c-5.66-9.19-9.8-19.68-14.66-29.33c-4.95-9.83-9.96-19.63-15.02-29.4
		c-18.16-35.09-36.94-69.85-55.81-104.56c-1.62-2.98-3.2-5.97-4.77-8.97c-0.06-0.11-0.12-0.21-0.18-0.32
		c-21.65-34.82-43.34-69.63-64.49-104.76c-2.38-3.95-4.74-7.92-7.09-11.89c-11.61-17.6-22.96-35.38-33.85-53.44
		c-8.96-14.86-16.98-30.25-24.37-45.94c-2.93-6.22-5.93-12.38-9-18.51c-0.09-0.17-0.19-0.34-0.29-0.51
		c-3.94-6.03-7.79-12.11-11.52-18.27c-0.34-0.57-0.79-1.06-1.33-1.45c-2.53-1.86-5.01-3.77-7.34-5.88c-0.16-0.15-0.31-0.3-0.45-0.45
		c-0.71-0.79-1.61-1.4-2.65-1.66c-4.34-1.09-8.68-2.16-13.04-3.18c-0.59-0.14-1.21-0.18-1.81-0.1c-3.77,0.5-7.38,1.56-10.26,3.97
		c-4.02,3.38-5.74,8.71-7.12,13.78c-14.33,52.69-12.86,108.22-11.28,162.8c1.5,51.66,2.99,103.32,4.49,154.98
		c0.06,2.07,1.36,3.89,3.3,4.62l282.57,106.16c4.58,1.72,8.66-3.35,6.08-7.51C934.38,683.5,934.34,683.44,934.3,683.38z"/>
</g>
</svg>
