<?xml version="1.0" encoding="utf-8"?>
<!-- Generator: Adobe Adobe Illustrator 24.2.0, SVG Export Plug-In . SVG Version: 6.00 Build 0)  -->
<svg version="1.1" xmlns="http://www.w3.org/2000/svg" xmlns:xlink="http://www.w3.org/1999/xlink" x="0px" y="0px" width="1728px"
	 height="1296px" viewBox="0 0 1728 1296" style="enable-background:new 0 0 1728 1296;" xml:space="preserve">
<style type="text/css">
	.st0{stroke:#000000;stroke-miterlimit:10;}
</style>
<g id="Layer_2">
	<path class="st0" d="M1508.83,495.75c-14.68-23.88-49.03-23.81-76.63-18.94c-121.25,21.42-240.19,69.52-356.15,111.41
		c-0.37,0.33-0.8,0.63-1.33,0.86c-16.78,7.18-33.86,13.16-52.24,8.1c-3.06-0.84-6.1-1.87-9.12-2.97c-2.97-0.22-5.84-0.46-8.56-0.7
		c-14.79-1.33-12.75,10.82-26.44,5.04c-61.75-26.08-123.5-52.16-185.25-78.24c-24.4-6.64-48.77-13.36-73.08-20.31
		c-4.44-1.27-8.86-2.56-13.29-3.86c-19.85-4.8-39.64-9.88-59.29-15.45c-15.68-4.44-31-9.37-46.1-15.52
		c-8.13-3.31-16.26-6.46-24.44-9.51c-7.41-1.82-14.78-3.77-22.11-5.85c-0.54,0.07-1.09,0.12-1.63,0.19
		c-8.25,9.93-14.58,21.03-13.36,27.13c2.49,12.44,27.91,40.01,35.69,50.03c57.46,73.96,93.93,132.2,145.62,174.3L342.58,831.2
		c42.62,25.82,108.4,27.19,173.28,37.92c20.64,3.41,63.47-3.01,84.36-4.19c24.98-1.41,49.03-9.54,72.72-17.6
		c254.87-86.72,505.74-167.44,760.6-254.17c21.17-7.2,47.1-20.87,63.05-36.53C1512.53,540.96,1520.54,514.8,1508.83,495.75z"/>
	<path class="st0" d="M455.65,775.02c-13.76-5.41-27.17-11.75-40.35-18.42c-15.61-7.91-30.77-16.68-46.37-24.61
		c-16.68-8.48-33.87-15.91-50.44-24.62c-14.6-7.68-28.95-15.69-43.73-23.05c-1.58-0.79-3.16-1.58-4.74-2.37
		c-13.99,8.22-27.88,16.62-41.58,25.31c29.31,41.58,84.88,96.21,114.13,107.17c0.98,0.37,0.99-0.27,0.67-1.25
		C381.79,802.51,418.8,790.19,455.65,775.02z M342.56,811.44c-0.77-1.83-1.55-3.71,0.01-3.26
		C344.11,808.62,343.33,810.14,342.56,811.44z"/>
	<path class="st0" d="M230.73,705.82c0.6,1.95,1.21,3.9,1.88,5.83l-1.82-5.87C230.77,705.8,230.75,705.81,230.73,705.82z"/>
	<path class="st0" d="M243.14,698.09c-5.36,3.29-10.68,6.63-15.99,10.01c23.08,40.79,55.56,76.24,94.22,102.73
		c4.43,3.04,9.24,6.06,14.61,6.24c7.61,0.26,14.1-5.13,19.77-10.22L243.14,698.09z"/>
	<path class="st0" d="M322.41,709.39c-1.31-0.67-2.62-1.33-3.92-2.02c-14.6-7.68-28.95-15.69-43.73-23.05
		c-1.58-0.79-3.16-1.58-4.74-2.37c-13.09,7.7-26.1,15.54-38.94,23.64c25.48,46.31,61.29,86.82,104.06,115.33
		c12.5-5.51,28.76-11.71,41.26-17.21l-43.67-86.89C329.32,714.32,325.87,711.85,322.41,709.39z"/>
	<path class="st0" d="M1022.47,597.19c-10.4-2.86-20.59-7.71-30.73-11.45c-10.32-3.81-20.67-7.56-31.04-11.26
		c-37.21-13.28-74.65-25.9-112.13-38.41c-3.28-1.09-6.53-2.22-9.78-3.37c-39.64-10.72-79.3-21.4-118.79-32.68
		c-4.44-1.27-8.86-2.56-13.29-3.86c-19.85-4.8-39.64-9.88-59.29-15.45c-15.68-4.44-31-9.37-46.1-15.52
		c-8.13-3.31-16.26-6.46-24.44-9.51c-7.41-1.82-14.79-3.76-22.14-5.85c-3.44,0.42-6.89,0.77-10.37,0.82
		c-0.77,0.01-1.45-0.11-2.06-0.33c-4.74,2.6-9.46,5.23-14.14,7.92c-2.69,3.12-4.89,6.58-5.39,10.61
		c-0.64,5.22,1.74,10.28,4.19,14.93c25.45,48.31,64.4,87.91,102.78,126.76c37.13,37.57,74.25,75.15,111.38,112.72l302.15-124.59
		C1036.51,599.45,1029.59,599.15,1022.47,597.19z"/>
</g>
</svg>
