<?xml version="1.0" encoding="utf-8"?>
<!-- Generator: Adobe Adobe Illustrator 24.2.0, SVG Export Plug-In . SVG Version: 6.00 Build 0)  -->
<svg version="1.1" xmlns="http://www.w3.org/2000/svg" xmlns:xlink="http://www.w3.org/1999/xlink" x="0px" y="0px" width="1728px"
	 height="1296px" viewBox="0 0 1728 1296" style="enable-background:new 0 0 1728 1296;" xml:space="preserve">
<style type="text/css">
	.st0{fill:#FFFFFF;stroke:#FFFFFF;stroke-miterlimit:10;}
	.st1{fill:#030202;stroke:#FFFFFF;stroke-miterlimit:10;}
	.st2{fill:#FFFFFF;stroke:#121111;stroke-miterlimit:10;}
	.st3{stroke:#000000;stroke-miterlimit:10;}
</style>
<g id="Layer_2">
	<path class="st1" d="M611.28,899.92c-94.1-102.11-91.45-479.5,3.13-581.07c68.85-73.94,325.28-75.93,385.16,6.88
		c81.3,112.42,100.84,482.83,0,574.2C924.71,967.77,680.33,974.85,611.28,899.92z"/>
</g>
<g id="Layer_3">
	<path class="st3" d="M863.19,46.55c-49.41,3.25-98.83,6.51-148.24,9.76c-6.49,0.43-13.15,0.89-19.06,3.59
		c-5.92,2.7-11.03,8.15-11.4,14.65c-0.42,7.45,5.55,14.06,12.48,16.83c6.93,2.77,14.64,2.56,22.1,2.3
		c55.78-1.94,111.55-3.87,167.33-5.81c9.04-0.31,18.41-0.71,26.49-4.78c8.08-4.07,14.5-12.93,12.76-21.81
		c-1.43-7.31-7.99-12.75-15.09-15.02c-7.09-2.27-14.72-1.95-22.16-1.61c-57.05,2.63-114.11,5.25-171.16,7.88
		c-7.52,0.35-15.26,0.75-22.06,3.97s-12.48,10.03-12.02,17.54c0.47,7.51,9.16,14,15.85,10.56"/>
	<path class="st3" d="M707.24,93.94c0.86,60.06,1.71,120.13,2.57,180.19c0.08,5.77,0.59,12.4,5.24,15.82
		c5.3,3.89,13.35,0.99,17.18-4.36c3.83-5.34,4.56-12.24,5.1-18.8C742.23,207.35,742.22,147.48,707.24,93.94z"/>
	<path class="st3" d="M710.25,81.32c5.22-7.98,18.63-5.53,24.24,2.19c5.61,7.72,5.68,18.01,5.52,27.55
		c-0.91,55.78-1.81,111.55-2.72,167.33"/>
	<path class="st3" d="M721.34,83.77c-3.48-0.13-6.97-0.27-10.45-0.4c0.27,9.96,0.53,19.92,0.8,29.88
		c-2.28-10.24-3.06-20.81-2.29-31.27c2.37,0.15,4.74,0.3,7.12,0.45C715.33,93.34,714.16,104.25,721.34,83.77z"/>
	<path class="st3" d="M709.49,284.92c-0.15-67.96-0.31-135.93-0.46-203.89c7.37-0.29,14.81,1.65,30.53,1.8
		c1.23,65.82,2.47,131.64,3.7,197.47"/>
	<path class="st3" d="M880.99,80.07c-4,69.43-4.85,139.04,0.34,207.76c1.96,7.27,13.35,7.54,18.39,1.94
		c5.04-5.6,5.45-13.84,5.58-21.38c1.23-67.68,2.46-135.35,3.7-203.03c-8.64-3.17-18.29-3.51-27.14-0.96
		C881.84,72.1,881.82,79.78,880.99,80.07z"/>
	<path class="st3" d="M873.83,78.22c0.2,66.1,0.4,132.2,0.61,198.3c6.15-0.21,12.3-0.43,18.46-0.64"/>
	<path class="st3" d="M895.19,68.1c-6.35-2.65-13.51-3.33-20.24-1.91c-1.93,23.2,0.1,46.72,5.98,69.24"/>
</g>
<g id="Layer_4">
	<path class="st3" d="M663.23,938.83c23.41,17.31,53.63,25.14,82.92,19.62c-0.04,15.59-11.27,30.23-26.02,35.27
		c-14.75,5.04-32.02,0.73-43.4-9.92C665.34,973.15,659.89,956.82,663.23,938.83z"/>
	<path class="st3" d="M892.25,951.95c25.54-0.36,50.93-8.01,72.43-21.82c3.93,13.63,2.19,28.81-4.72,41.2
		c-4.65,8.34-11.92,15.63-21.08,18.33c-10.73,3.17-22.72-0.49-31.31-7.66S893.44,964.56,892.25,951.95z"/>
</g>
<g id="Layer_5">
</g>
<g id="Layer_6">
</g>
</svg>
